<mxfile host="Electron" agent="Mozilla/5.0 (Macintosh; Intel Mac OS X 10_15_7) AppleWebKit/537.36 (KHTML, like Gecko) draw.io/24.7.5 Chrome/126.0.6478.183 Electron/31.3.0 Safari/537.36" version="24.7.5">
  <diagram name="Page-1" id="16e2658f-23c8-b752-8be9-c03fbebb8bbe">
    <mxGraphModel dx="1034" dy="523" grid="1" gridSize="10" guides="1" tooltips="1" connect="1" arrows="1" fold="1" page="1" pageScale="1" pageWidth="1100" pageHeight="850" background="none" math="0" shadow="0">
      <root>
        <mxCell id="0" />
        <mxCell id="1" parent="0" />
        <mxCell id="NoVvPRvszFr26SJCoXZp-1" value="SPDT&lt;div&gt;toggle&lt;/div&gt;&lt;div&gt;switch&lt;/div&gt;" style="pointerEvents=1;verticalLabelPosition=bottom;shadow=0;dashed=0;align=center;html=1;verticalAlign=top;shape=mxgraph.electrical.electro-mechanical.selectorSwitch3Position2;elSwitchState=1;" parent="1" vertex="1">
          <mxGeometry x="431" y="48" width="80" height="50" as="geometry" />
        </mxCell>
        <mxCell id="NoVvPRvszFr26SJCoXZp-2" value="" style="pointerEvents=1;verticalLabelPosition=bottom;shadow=0;dashed=0;align=center;html=1;verticalAlign=top;shape=mxgraph.electrical.electro-mechanical.relay;" parent="1" vertex="1">
          <mxGeometry x="501" y="579" width="199" height="60" as="geometry" />
        </mxCell>
        <mxCell id="NoVvPRvszFr26SJCoXZp-3" value="" style="pointerEvents=1;verticalLabelPosition=bottom;shadow=0;dashed=0;align=center;html=1;verticalAlign=top;shape=mxgraph.electrical.signal_sources.source;aspect=fixed;points=[[0,0.5,0,0,0],[0.5,0,0,0,0],[0.5,1,0,0,0],[0.86,0.16,0,0,0],[0.86,0.85,0,0,0],[1,0.5,0,0,0]];elSignalType=ac;" parent="1" vertex="1">
          <mxGeometry x="126.4" y="90" width="60" height="60" as="geometry" />
        </mxCell>
        <mxCell id="NoVvPRvszFr26SJCoXZp-4" style="edgeStyle=orthogonalEdgeStyle;rounded=0;orthogonalLoop=1;jettySize=auto;html=1;curved=1;exitX=1;exitY=0.5;exitDx=0;exitDy=0;exitPerimeter=0;entryX=0;entryY=0.5;entryDx=0;entryDy=0;entryPerimeter=0;" parent="1" target="NoVvPRvszFr26SJCoXZp-3" edge="1">
          <mxGeometry relative="1" as="geometry">
            <mxPoint x="115" y="87" as="targetPoint" />
            <mxPoint x="38" y="121" as="sourcePoint" />
          </mxGeometry>
        </mxCell>
        <mxCell id="NoVvPRvszFr26SJCoXZp-8" value="240VAC" style="edgeLabel;html=1;align=center;verticalAlign=middle;resizable=0;points=[];" parent="NoVvPRvszFr26SJCoXZp-4" vertex="1" connectable="0">
          <mxGeometry x="-0.03" y="-1" relative="1" as="geometry">
            <mxPoint as="offset" />
          </mxGeometry>
        </mxCell>
        <mxCell id="NoVvPRvszFr26SJCoXZp-21" style="edgeStyle=orthogonalEdgeStyle;rounded=0;orthogonalLoop=1;jettySize=auto;html=1;curved=1;" parent="1" source="NoVvPRvszFr26SJCoXZp-7" target="NoVvPRvszFr26SJCoXZp-10" edge="1">
          <mxGeometry relative="1" as="geometry" />
        </mxCell>
        <mxCell id="NoVvPRvszFr26SJCoXZp-22" value="5VDC&lt;div&gt;94mA-514mA&lt;/div&gt;" style="edgeLabel;html=1;align=center;verticalAlign=middle;resizable=0;points=[];" parent="NoVvPRvszFr26SJCoXZp-21" vertex="1" connectable="0">
          <mxGeometry x="0.2413" y="-2" relative="1" as="geometry">
            <mxPoint as="offset" />
          </mxGeometry>
        </mxCell>
        <mxCell id="NoVvPRvszFr26SJCoXZp-7" value="30W 5V 2.5A&lt;div&gt;switching&amp;nbsp;&lt;/div&gt;&lt;div&gt;power supply&lt;/div&gt;&lt;div&gt;240VAC 0.75A&lt;/div&gt;" style="pointerEvents=1;verticalLabelPosition=bottom;shadow=0;dashed=0;align=center;html=1;verticalAlign=top;shape=mxgraph.electrical.inductors.transformer;direction=north;points=[[0,0,0,0,0],[0,1,0,0,0],[0.31,0.02,0,0,0],[0.66,0.01,0,0,0],[1,0,0,0,0],[1,1,0,0,0]];" parent="1" vertex="1">
          <mxGeometry x="253" y="432" width="64" height="64" as="geometry" />
        </mxCell>
        <mxCell id="NoVvPRvszFr26SJCoXZp-9" value="&lt;p&gt;&lt;font style=&quot;font-size: 10px;&quot; face=&quot;Verdana&quot;&gt;1 1/2HP&amp;nbsp;&lt;/font&gt;&lt;/p&gt;&lt;p&gt;&lt;span style=&quot;background-color: initial; font-family: Verdana; font-size: 10px;&quot;&gt;10A&lt;/span&gt;&lt;/p&gt;" style="dashed=0;outlineConnect=0;align=center;html=1;shape=mxgraph.pid.engines.electric_motor_(ac);fontSize=45;" parent="1" vertex="1">
          <mxGeometry x="840" y="98" width="60" height="64" as="geometry" />
        </mxCell>
        <mxCell id="NoVvPRvszFr26SJCoXZp-10" value="Arduino&lt;div&gt;UNO WiFi&lt;/div&gt;" style="dashed=0;outlineConnect=0;html=1;align=center;labelPosition=center;verticalLabelPosition=bottom;verticalAlign=top;shape=mxgraph.weblogos.arduino;fillColor=#36868D;strokeColor=none" parent="1" vertex="1">
          <mxGeometry x="131" y="593" width="67.4" height="32" as="geometry" />
        </mxCell>
        <mxCell id="NoVvPRvszFr26SJCoXZp-12" value="" style="verticalLabelPosition=bottom;shadow=0;dashed=0;align=center;html=1;verticalAlign=top;shape=mxgraph.electrical.transmission.terminal_3_phase;pointerEvents=1;direction=west;" parent="1" vertex="1">
          <mxGeometry x="640" y="600" width="43" height="10" as="geometry" />
        </mxCell>
        <mxCell id="NoVvPRvszFr26SJCoXZp-13" style="edgeStyle=orthogonalEdgeStyle;rounded=0;orthogonalLoop=1;jettySize=auto;html=1;entryX=0;entryY=0.51;entryDx=0;entryDy=0;entryPerimeter=0;" parent="1" source="NoVvPRvszFr26SJCoXZp-10" target="NoVvPRvszFr26SJCoXZp-2" edge="1">
          <mxGeometry relative="1" as="geometry" />
        </mxCell>
        <mxCell id="NoVvPRvszFr26SJCoXZp-28" value="5VDC&lt;div&gt;digital&lt;/div&gt;&lt;div&gt;out&lt;/div&gt;" style="edgeLabel;html=1;align=center;verticalAlign=middle;resizable=0;points=[];" parent="NoVvPRvszFr26SJCoXZp-13" vertex="1" connectable="0">
          <mxGeometry x="-0.3343" y="-1" relative="1" as="geometry">
            <mxPoint as="offset" />
          </mxGeometry>
        </mxCell>
        <mxCell id="NoVvPRvszFr26SJCoXZp-14" style="edgeStyle=orthogonalEdgeStyle;rounded=0;orthogonalLoop=1;jettySize=auto;html=1;entryX=0.1;entryY=0;entryDx=0;entryDy=0;entryPerimeter=0;curved=1;" parent="1" source="NoVvPRvszFr26SJCoXZp-7" target="NoVvPRvszFr26SJCoXZp-2" edge="1">
          <mxGeometry relative="1" as="geometry" />
        </mxCell>
        <mxCell id="NoVvPRvszFr26SJCoXZp-15" value="5VDC&lt;div&gt;5mA-190mA&lt;/div&gt;" style="edgeLabel;html=1;align=center;verticalAlign=middle;resizable=0;points=[];" parent="NoVvPRvszFr26SJCoXZp-14" vertex="1" connectable="0">
          <mxGeometry x="0.1593" y="-1" relative="1" as="geometry">
            <mxPoint x="-104" y="1" as="offset" />
          </mxGeometry>
        </mxCell>
        <mxCell id="NoVvPRvszFr26SJCoXZp-16" style="rounded=0;orthogonalLoop=1;jettySize=auto;html=1;entryX=0.88;entryY=0;entryDx=0;entryDy=0;entryPerimeter=0;" parent="1" target="pJY5WsJKrMqDYrpbcl0h-17" edge="1">
          <mxGeometry relative="1" as="geometry">
            <mxPoint x="520" y="100" as="sourcePoint" />
          </mxGeometry>
        </mxCell>
        <mxCell id="NoVvPRvszFr26SJCoXZp-17" value="240VAC&lt;div&gt;10A&lt;/div&gt;" style="edgeLabel;html=1;align=center;verticalAlign=middle;resizable=0;points=[];" parent="NoVvPRvszFr26SJCoXZp-16" vertex="1" connectable="0">
          <mxGeometry x="-0.1918" y="-1" relative="1" as="geometry">
            <mxPoint y="1" as="offset" />
          </mxGeometry>
        </mxCell>
        <mxCell id="pJY5WsJKrMqDYrpbcl0h-5" value="" style="rounded=0;whiteSpace=wrap;html=1;direction=south;points=[[0,0,0,0,0],[0,0.25,0,0,0],[0,0.5,0,0,0],[0,0.75,0,0,0],[0,1,0,0,0],[0.25,0,0,0,0],[0.25,1,0,0,0],[0.5,0,0,0,0],[0.5,1,0,0,0],[0.75,0,0,0,0],[0.75,1,0,0,0],[1,0,0,0,0],[1,0.17,0,0,0],[1,0.25,0,0,0],[1,0.44,0,0,0],[1,0.5,0,0,0],[1,0.75,0,0,0],[1,0.83,0,0,0],[1,1,0,0,0]];" vertex="1" parent="1">
          <mxGeometry x="250" y="70" width="59" height="120" as="geometry" />
        </mxCell>
        <mxCell id="pJY5WsJKrMqDYrpbcl0h-8" value="" style="endArrow=classic;html=1;rounded=0;entryX=0.25;entryY=1;entryDx=0;entryDy=0;exitX=0.86;exitY=0.16;exitDx=0;exitDy=0;exitPerimeter=0;" edge="1" parent="1" source="NoVvPRvszFr26SJCoXZp-3" target="pJY5WsJKrMqDYrpbcl0h-5">
          <mxGeometry width="50" height="50" relative="1" as="geometry">
            <mxPoint x="280" y="80" as="sourcePoint" />
            <mxPoint x="259.9" y="290" as="targetPoint" />
          </mxGeometry>
        </mxCell>
        <mxCell id="pJY5WsJKrMqDYrpbcl0h-9" value="" style="endArrow=classic;html=1;rounded=0;exitX=0.5;exitY=1;exitDx=0;exitDy=0;entryX=0.86;entryY=0.85;entryDx=0;entryDy=0;entryPerimeter=0;" edge="1" parent="1" source="pJY5WsJKrMqDYrpbcl0h-5" target="NoVvPRvszFr26SJCoXZp-3">
          <mxGeometry width="50" height="50" relative="1" as="geometry">
            <mxPoint x="169.9" y="330" as="sourcePoint" />
            <mxPoint x="209.9" y="250" as="targetPoint" />
          </mxGeometry>
        </mxCell>
        <mxCell id="pJY5WsJKrMqDYrpbcl0h-10" value="" style="endArrow=classic;html=1;rounded=0;entryX=0.013;entryY=0.52;entryDx=0;entryDy=0;entryPerimeter=0;exitX=0.5;exitY=0;exitDx=0;exitDy=0;exitPerimeter=0;" edge="1" parent="1" source="pJY5WsJKrMqDYrpbcl0h-18" target="NoVvPRvszFr26SJCoXZp-1">
          <mxGeometry width="50" height="50" relative="1" as="geometry">
            <mxPoint x="309" y="100" as="sourcePoint" />
            <mxPoint x="450" y="210" as="targetPoint" />
          </mxGeometry>
        </mxCell>
        <mxCell id="pJY5WsJKrMqDYrpbcl0h-12" value="" style="rounded=0;whiteSpace=wrap;html=1;direction=south;points=[[0,0,0,0,0],[0,0.25,0,0,0],[0,0.5,0,0,0],[0,0.75,0,0,0],[0,1,0,0,0],[0.25,0,0,0,0],[0.25,1,0,0,0],[0.5,0,0,0,0],[0.5,1,0,0,0],[0.75,0,0,0,0],[0.75,1,0,0,0],[1,0,0,0,0],[1,0.17,0,0,0],[1,0.25,0,0,0],[1,0.44,0,0,0],[1,0.5,0,0,0],[1,0.75,0,0,0],[1,0.83,0,0,0],[1,1,0,0,0]];" vertex="1" parent="1">
          <mxGeometry x="683" y="76.5" width="59" height="120" as="geometry" />
        </mxCell>
        <mxCell id="pJY5WsJKrMqDYrpbcl0h-13" value="" style="endArrow=classic;html=1;rounded=0;exitX=0.5;exitY=0;exitDx=0;exitDy=0;exitPerimeter=0;entryX=0.5;entryY=1;entryDx=0;entryDy=0;entryPerimeter=0;" edge="1" parent="1" source="pJY5WsJKrMqDYrpbcl0h-31" target="pJY5WsJKrMqDYrpbcl0h-30">
          <mxGeometry width="50" height="50" relative="1" as="geometry">
            <mxPoint x="800" y="390" as="sourcePoint" />
            <mxPoint x="850" y="340" as="targetPoint" />
          </mxGeometry>
        </mxCell>
        <mxCell id="pJY5WsJKrMqDYrpbcl0h-14" value="" style="endArrow=classic;html=1;rounded=0;entryX=0.88;entryY=0;entryDx=0;entryDy=0;entryPerimeter=0;exitX=0.88;exitY=0;exitDx=0;exitDy=0;exitPerimeter=0;" edge="1" parent="1" source="pJY5WsJKrMqDYrpbcl0h-30" target="pJY5WsJKrMqDYrpbcl0h-31">
          <mxGeometry width="50" height="50" relative="1" as="geometry">
            <mxPoint x="760" y="410" as="sourcePoint" />
            <mxPoint x="810" y="360" as="targetPoint" />
          </mxGeometry>
        </mxCell>
        <mxCell id="pJY5WsJKrMqDYrpbcl0h-15" value="" style="endArrow=classic;html=1;rounded=0;exitX=0.5;exitY=0;exitDx=0;exitDy=0;exitPerimeter=0;entryX=0.12;entryY=1;entryDx=0;entryDy=0;entryPerimeter=0;" edge="1" parent="1" source="pJY5WsJKrMqDYrpbcl0h-29" target="NoVvPRvszFr26SJCoXZp-12">
          <mxGeometry width="50" height="50" relative="1" as="geometry">
            <mxPoint x="710" y="520" as="sourcePoint" />
            <mxPoint x="820" y="670" as="targetPoint" />
          </mxGeometry>
        </mxCell>
        <mxCell id="pJY5WsJKrMqDYrpbcl0h-17" value="" style="verticalLabelPosition=bottom;shadow=0;dashed=0;align=center;html=1;verticalAlign=top;shape=mxgraph.electrical.transmission.terminal_3_phase;pointerEvents=1;" vertex="1" parent="1">
          <mxGeometry x="566" y="600" width="43" height="10" as="geometry" />
        </mxCell>
        <mxCell id="pJY5WsJKrMqDYrpbcl0h-18" value="" style="verticalLabelPosition=bottom;shadow=0;dashed=0;align=center;html=1;verticalAlign=top;shape=mxgraph.electrical.transmission.terminal_3_phase;pointerEvents=1;direction=south;" vertex="1" parent="1">
          <mxGeometry x="290" y="82" width="10" height="43" as="geometry" />
        </mxCell>
        <mxCell id="pJY5WsJKrMqDYrpbcl0h-20" value="" style="verticalLabelPosition=bottom;shadow=0;dashed=0;align=center;html=1;verticalAlign=top;shape=mxgraph.electrical.transmission.terminal_3_phase;pointerEvents=1;" vertex="1" parent="1">
          <mxGeometry x="257" y="170" width="43" height="10" as="geometry" />
        </mxCell>
        <mxCell id="NoVvPRvszFr26SJCoXZp-37" style="rounded=0;orthogonalLoop=1;jettySize=auto;html=1;entryX=0.12;entryY=1;entryDx=0;entryDy=0;entryPerimeter=0;exitX=0.12;exitY=0;exitDx=0;exitDy=0;exitPerimeter=0;" parent="1" source="pJY5WsJKrMqDYrpbcl0h-21" edge="1" target="pJY5WsJKrMqDYrpbcl0h-20">
          <mxGeometry relative="1" as="geometry">
            <mxPoint x="240" y="200" as="targetPoint" />
            <mxPoint x="230" y="350" as="sourcePoint" />
          </mxGeometry>
        </mxCell>
        <mxCell id="NoVvPRvszFr26SJCoXZp-38" value="240VAC&lt;div&gt;GND&lt;/div&gt;" style="edgeLabel;html=1;align=center;verticalAlign=middle;resizable=0;points=[];" parent="NoVvPRvszFr26SJCoXZp-37" vertex="1" connectable="0">
          <mxGeometry x="-0.2702" y="-4" relative="1" as="geometry">
            <mxPoint x="-28" y="-88" as="offset" />
          </mxGeometry>
        </mxCell>
        <mxCell id="NoVvPRvszFr26SJCoXZp-25" value="240VAC&lt;div&gt;0.75A&lt;/div&gt;" style="rounded=0;orthogonalLoop=1;jettySize=auto;html=1;exitX=0.88;exitY=0.5;exitDx=0;exitDy=0;exitPerimeter=0;entryX=0.88;entryY=0;entryDx=0;entryDy=0;entryPerimeter=0;" parent="1" source="pJY5WsJKrMqDYrpbcl0h-20" target="pJY5WsJKrMqDYrpbcl0h-21" edge="1">
          <mxGeometry relative="1" as="geometry">
            <mxPoint x="360" y="380" as="targetPoint" />
            <mxPoint x="202.99099999999999" y="176" as="sourcePoint" />
          </mxGeometry>
        </mxCell>
        <mxCell id="pJY5WsJKrMqDYrpbcl0h-21" value="" style="verticalLabelPosition=bottom;shadow=0;dashed=0;align=center;html=1;verticalAlign=top;shape=mxgraph.electrical.transmission.terminal_3_phase;pointerEvents=1;" vertex="1" parent="1">
          <mxGeometry x="263.5" y="430" width="43" height="10" as="geometry" />
        </mxCell>
        <mxCell id="pJY5WsJKrMqDYrpbcl0h-22" value="" style="verticalLabelPosition=bottom;shadow=0;dashed=0;align=center;html=1;verticalAlign=top;shape=mxgraph.electrical.transmission.terminal_3_phase;pointerEvents=1;direction=south;" vertex="1" parent="1">
          <mxGeometry x="290" y="115" width="10" height="43" as="geometry" />
        </mxCell>
        <mxCell id="pJY5WsJKrMqDYrpbcl0h-24" value="" style="endArrow=classic;html=1;rounded=0;entryX=0.5;entryY=0;entryDx=0;entryDy=0;entryPerimeter=0;" edge="1" parent="1" target="pJY5WsJKrMqDYrpbcl0h-22">
          <mxGeometry width="50" height="50" relative="1" as="geometry">
            <mxPoint x="571" y="605" as="sourcePoint" />
            <mxPoint x="430" y="350" as="targetPoint" />
          </mxGeometry>
        </mxCell>
        <mxCell id="pJY5WsJKrMqDYrpbcl0h-25" value="240VAC&lt;div&gt;GND&lt;/div&gt;" style="edgeLabel;html=1;align=center;verticalAlign=middle;resizable=0;points=[];" vertex="1" connectable="0" parent="pJY5WsJKrMqDYrpbcl0h-24">
          <mxGeometry x="0.1619" y="-1" relative="1" as="geometry">
            <mxPoint as="offset" />
          </mxGeometry>
        </mxCell>
        <mxCell id="pJY5WsJKrMqDYrpbcl0h-27" value="" style="verticalLabelPosition=bottom;shadow=0;dashed=0;align=center;html=1;verticalAlign=top;shape=mxgraph.electrical.transmission.terminal_3_phase;pointerEvents=1;direction=south;" vertex="1" parent="1">
          <mxGeometry x="699" y="90" width="10" height="43" as="geometry" />
        </mxCell>
        <mxCell id="pJY5WsJKrMqDYrpbcl0h-11" value="" style="endArrow=classic;html=1;rounded=0;exitX=0.12;exitY=1;exitDx=0;exitDy=0;exitPerimeter=0;entryX=-0.047;entryY=0.4;entryDx=0;entryDy=0;entryPerimeter=0;edgeStyle=orthogonalEdgeStyle;curved=1;" edge="1" parent="1" source="pJY5WsJKrMqDYrpbcl0h-27" target="pJY5WsJKrMqDYrpbcl0h-18">
          <mxGeometry width="50" height="50" relative="1" as="geometry">
            <mxPoint x="390" y="280" as="sourcePoint" />
            <mxPoint x="310" y="100" as="targetPoint" />
            <Array as="points">
              <mxPoint x="699" y="30" />
              <mxPoint x="296" y="30" />
            </Array>
          </mxGeometry>
        </mxCell>
        <mxCell id="pJY5WsJKrMqDYrpbcl0h-26" value="240VAC&lt;div&gt;GND&lt;/div&gt;" style="edgeLabel;html=1;align=center;verticalAlign=middle;resizable=0;points=[];" vertex="1" connectable="0" parent="pJY5WsJKrMqDYrpbcl0h-11">
          <mxGeometry x="0.3762" y="1" relative="1" as="geometry">
            <mxPoint x="-1" as="offset" />
          </mxGeometry>
        </mxCell>
        <mxCell id="NoVvPRvszFr26SJCoXZp-11" style="rounded=0;orthogonalLoop=1;jettySize=auto;html=1;entryX=0.5;entryY=1;entryDx=0;entryDy=0;entryPerimeter=0;" parent="1" target="pJY5WsJKrMqDYrpbcl0h-27" edge="1">
          <mxGeometry relative="1" as="geometry">
            <mxPoint x="530" y="50" as="sourcePoint" />
            <mxPoint x="660" y="120" as="targetPoint" />
          </mxGeometry>
        </mxCell>
        <mxCell id="pJY5WsJKrMqDYrpbcl0h-29" value="" style="verticalLabelPosition=bottom;shadow=0;dashed=0;align=center;html=1;verticalAlign=top;shape=mxgraph.electrical.transmission.terminal_3_phase;pointerEvents=1;direction=west;" vertex="1" parent="1">
          <mxGeometry x="691" y="170" width="43" height="10" as="geometry" />
        </mxCell>
        <mxCell id="NoVvPRvszFr26SJCoXZp-19" style="rounded=0;orthogonalLoop=1;jettySize=auto;html=1;entryX=0.88;entryY=0;entryDx=0;entryDy=0;entryPerimeter=0;exitX=0.88;exitY=1;exitDx=0;exitDy=0;exitPerimeter=0;" parent="1" source="NoVvPRvszFr26SJCoXZp-12" target="pJY5WsJKrMqDYrpbcl0h-29" edge="1">
          <mxGeometry relative="1" as="geometry">
            <mxPoint x="811" y="458" as="targetPoint" />
            <mxPoint x="662" y="600" as="sourcePoint" />
          </mxGeometry>
        </mxCell>
        <mxCell id="NoVvPRvszFr26SJCoXZp-30" value="240VAC&lt;div&gt;10A&lt;/div&gt;" style="edgeLabel;html=1;align=center;verticalAlign=middle;resizable=0;points=[];" parent="NoVvPRvszFr26SJCoXZp-19" vertex="1" connectable="0">
          <mxGeometry x="-0.2679" y="2" relative="1" as="geometry">
            <mxPoint as="offset" />
          </mxGeometry>
        </mxCell>
        <mxCell id="pJY5WsJKrMqDYrpbcl0h-30" value="" style="verticalLabelPosition=bottom;shadow=0;dashed=0;align=center;html=1;verticalAlign=top;shape=mxgraph.electrical.transmission.terminal_3_phase;pointerEvents=1;direction=south;" vertex="1" parent="1">
          <mxGeometry x="830" y="108.5" width="10" height="43" as="geometry" />
        </mxCell>
        <mxCell id="pJY5WsJKrMqDYrpbcl0h-31" value="" style="verticalLabelPosition=bottom;shadow=0;dashed=0;align=center;html=1;verticalAlign=top;shape=mxgraph.electrical.transmission.terminal_3_phase;pointerEvents=1;direction=south;" vertex="1" parent="1">
          <mxGeometry x="724" y="91" width="10" height="43" as="geometry" />
        </mxCell>
      </root>
    </mxGraphModel>
  </diagram>
</mxfile>
